<mxfile host="app.diagrams.net" agent="Mozilla/5.0 (Windows NT 10.0; Win64; x64) AppleWebKit/537.36 (KHTML, like Gecko) Chrome/132.0.0.0 Safari/537.36 OPR/117.0.0.0 (Edition std-1)" version="26.2.12">
  <diagram name="Page-1" id="inarA9QGWKTlLkQJpEFQ">
    <mxGraphModel dx="1063" dy="596" grid="1" gridSize="10" guides="1" tooltips="1" connect="1" arrows="1" fold="1" page="1" pageScale="1" pageWidth="827" pageHeight="1169" math="0" shadow="0">
      <root>
        <mxCell id="0" />
        <mxCell id="1" parent="0" />
        <mxCell id="akQ0fPVQwShH7-bDqrva-1" value="&lt;p style=&quot;margin: 0px ; margin-top: 4px ; margin-left: 10px ; text-align: left&quot;&gt;&lt;b&gt;req&lt;/b&gt;&amp;nbsp;ReqDiagram&lt;/p&gt;" style="html=1;strokeWidth=1;shape=mxgraph.sysml.package;html=1;overflow=fill;whiteSpace=wrap;fillColor=none;gradientColor=none;fontSize=12;align=center;labelX=327.64;" vertex="1" parent="1">
          <mxGeometry x="440" y="295" width="840" height="545" as="geometry" />
        </mxCell>
        <mxCell id="akQ0fPVQwShH7-bDqrva-2" value="&lt;p style=&quot;margin: 0px ; margin-top: 4px ; text-align: center&quot;&gt;&amp;lt;&amp;lt;requirement&amp;gt;&amp;gt;&lt;br&gt;&lt;b&gt;Map personalization&lt;/b&gt;&lt;/p&gt;&lt;hr&gt;&lt;p style=&quot;margin: 0px ; margin-left: 8px ; text-align: left&quot;&gt;Id = &quot;MAP-1&quot;&lt;/p&gt;&lt;p style=&quot;margin: 0px ; margin-left: 8px ; text-align: left&quot;&gt;text = &quot;The system shall allow the user to personalize their map appearance by changing its theme and colors. &quot;&lt;/p&gt;" style="shape=rect;html=1;overflow=fill;whiteSpace=wrap;" vertex="1" parent="1">
          <mxGeometry x="660" y="340" width="290" height="130" as="geometry" />
        </mxCell>
        <mxCell id="akQ0fPVQwShH7-bDqrva-3" style="edgeStyle=orthogonalEdgeStyle;rounded=0;html=1;endArrow=circlePlus;endFill=0;jettySize=auto;orthogonalLoop=1;exitX=0.5;exitY=0;exitDx=0;exitDy=0;" edge="1" parent="1">
          <mxGeometry relative="1" as="geometry">
            <Array as="points">
              <mxPoint x="800" y="565" />
            </Array>
            <mxPoint x="807" y="565" as="sourcePoint" />
            <mxPoint x="800" y="470" as="targetPoint" />
          </mxGeometry>
        </mxCell>
        <mxCell id="akQ0fPVQwShH7-bDqrva-4" value="&lt;p style=&quot;margin: 0px ; margin-top: 4px ; text-align: center&quot;&gt;&amp;lt;&amp;lt;requirement&amp;gt;&amp;gt;&lt;br&gt;&lt;b&gt;Set Theme&lt;/b&gt;&lt;/p&gt;&lt;hr&gt;&lt;p style=&quot;margin: 0px ; margin-left: 8px ; text-align: left&quot;&gt;Id = &quot;MAP-1.1&quot;&lt;/p&gt;&lt;p style=&quot;margin: 0px ; margin-left: 8px ; text-align: left&quot;&gt;text=&quot;The system shall allow the user to change between light or dark theme..&quot;&lt;/p&gt;" style="shape=rect;html=1;overflow=fill;whiteSpace=wrap;" vertex="1" parent="1">
          <mxGeometry x="490" y="560" width="200" height="120" as="geometry" />
        </mxCell>
        <mxCell id="akQ0fPVQwShH7-bDqrva-5" value="&lt;p style=&quot;margin: 0px ; margin-top: 4px ; text-align: center&quot;&gt;&amp;lt;&amp;lt;requirement&amp;gt;&amp;gt;&lt;br&gt;&lt;b&gt;Adjust color scheme&lt;/b&gt;&lt;/p&gt;&lt;hr&gt;&lt;p style=&quot;margin: 0px ; margin-left: 8px ; text-align: left&quot;&gt;Id = &quot;MAP-1.2&quot;&lt;/p&gt;&lt;p style=&quot;margin: 0px ; margin-left: 8px ; text-align: left&quot;&gt;text=&quot;The system shall allow users to adjust the mapâ€™s color scheme, for better visibility and user preference.&quot;&lt;/p&gt;" style="shape=rect;html=1;overflow=fill;whiteSpace=wrap;" vertex="1" parent="1">
          <mxGeometry x="720" y="560" width="200" height="120" as="geometry" />
        </mxCell>
        <mxCell id="akQ0fPVQwShH7-bDqrva-6" value="&lt;p style=&quot;margin: 0px ; margin-top: 4px ; text-align: center&quot;&gt;&amp;lt;&amp;lt;requirement&amp;gt;&amp;gt;&lt;br&gt;Confirmation&lt;/p&gt;" style="shape=rect;html=1;overflow=fill;whiteSpace=wrap;" vertex="1" parent="1">
          <mxGeometry x="525" y="760" width="130" height="40" as="geometry" />
        </mxCell>
        <mxCell id="akQ0fPVQwShH7-bDqrva-7" value="" style="endArrow=none;html=1;rounded=0;exitX=0.5;exitY=0;exitDx=0;exitDy=0;" edge="1" parent="1" source="akQ0fPVQwShH7-bDqrva-4">
          <mxGeometry width="50" height="50" relative="1" as="geometry">
            <mxPoint x="580" y="560" as="sourcePoint" />
            <mxPoint x="800" y="510" as="targetPoint" />
            <Array as="points">
              <mxPoint x="590" y="510" />
            </Array>
          </mxGeometry>
        </mxCell>
        <mxCell id="akQ0fPVQwShH7-bDqrva-8" value="&amp;lt;&amp;lt;deriveReq&amp;gt;&amp;gt;" style="endArrow=open;html=1;edgeStyle=none;endSize=12;dashed=1;rounded=0;entryX=0.5;entryY=1;entryDx=0;entryDy=0;exitX=0.5;exitY=0;exitDx=0;exitDy=0;" edge="1" parent="1" source="akQ0fPVQwShH7-bDqrva-6" target="akQ0fPVQwShH7-bDqrva-4">
          <mxGeometry relative="1" as="geometry">
            <mxPoint x="620" y="510" as="targetPoint" />
            <mxPoint x="620" y="590" as="sourcePoint" />
          </mxGeometry>
        </mxCell>
        <mxCell id="akQ0fPVQwShH7-bDqrva-9" value="&amp;lt;&amp;lt;deriveReq&amp;gt;&amp;gt;" style="endArrow=open;html=1;edgeStyle=none;endSize=12;dashed=1;rounded=0;entryX=0.5;entryY=1;entryDx=0;entryDy=0;exitX=0.5;exitY=0;exitDx=0;exitDy=0;" edge="1" parent="1" source="akQ0fPVQwShH7-bDqrva-26" target="akQ0fPVQwShH7-bDqrva-5">
          <mxGeometry relative="1" as="geometry">
            <mxPoint x="630" y="520" as="targetPoint" />
            <mxPoint x="630" y="600" as="sourcePoint" />
          </mxGeometry>
        </mxCell>
        <mxCell id="akQ0fPVQwShH7-bDqrva-12" value="" style="fontStyle=1;align=center;verticalAlign=middle;childLayout=stackLayout;horizontal=1;horizontalStack=0;resizeParent=1;resizeParentMax=0;resizeLast=0;marginBottom=0;" vertex="1" parent="1">
          <mxGeometry x="1040" y="340" width="190" height="120" as="geometry" />
        </mxCell>
        <mxCell id="akQ0fPVQwShH7-bDqrva-13" value="&amp;lt;&amp;lt;NF requirement&amp;gt;&amp;gt;" style="html=1;align=center;spacing=0;verticalAlign=middle;strokeColor=none;fillColor=none;whiteSpace=wrap;spacingTop=3;" vertex="1" parent="akQ0fPVQwShH7-bDqrva-12">
          <mxGeometry width="190" height="16" as="geometry" />
        </mxCell>
        <mxCell id="akQ0fPVQwShH7-bDqrva-14" value="Performance" style="html=1;align=center;spacing=0;verticalAlign=middle;strokeColor=none;fillColor=none;whiteSpace=wrap;fontStyle=1" vertex="1" parent="akQ0fPVQwShH7-bDqrva-12">
          <mxGeometry y="16" width="190" height="18" as="geometry" />
        </mxCell>
        <mxCell id="akQ0fPVQwShH7-bDqrva-15" value="" style="line;strokeWidth=0.25;fillColor=none;align=left;verticalAlign=middle;spacingTop=-1;spacingLeft=3;spacingRight=3;rotatable=0;labelPosition=right;points=[];portConstraint=eastwest;" vertex="1" parent="akQ0fPVQwShH7-bDqrva-12">
          <mxGeometry y="34" width="190" height="8" as="geometry" />
        </mxCell>
        <mxCell id="akQ0fPVQwShH7-bDqrva-16" value="Id=&quot;MAP-NF-1&quot;" style="html=1;align=left;spacing=0;verticalAlign=middle;strokeColor=none;fillColor=none;whiteSpace=wrap;spacingLeft=10;" vertex="1" parent="akQ0fPVQwShH7-bDqrva-12">
          <mxGeometry y="42" width="190" height="16" as="geometry" />
        </mxCell>
        <mxCell id="akQ0fPVQwShH7-bDqrva-17" value="text=&quot;The system shall apply changes to map appearance in real-time, with no noticeable delay greater than 3 seconds.&quot;" style="html=1;align=left;spacing=0;verticalAlign=middle;strokeColor=none;fillColor=none;whiteSpace=wrap;spacingLeft=10;" vertex="1" parent="akQ0fPVQwShH7-bDqrva-12">
          <mxGeometry y="58" width="190" height="62" as="geometry" />
        </mxCell>
        <mxCell id="akQ0fPVQwShH7-bDqrva-25" value="&amp;lt;&amp;lt;satisfy&amp;gt;&amp;gt;" style="endArrow=open;html=1;edgeStyle=none;endSize=12;dashed=1;rounded=0;entryX=1;entryY=0.5;entryDx=0;entryDy=0;exitX=0;exitY=0.25;exitDx=0;exitDy=0;" edge="1" parent="1" source="akQ0fPVQwShH7-bDqrva-17" target="akQ0fPVQwShH7-bDqrva-2">
          <mxGeometry relative="1" as="geometry">
            <mxPoint x="670" y="415" as="targetPoint" />
            <mxPoint x="570" y="424" as="sourcePoint" />
          </mxGeometry>
        </mxCell>
        <mxCell id="akQ0fPVQwShH7-bDqrva-26" value="&lt;p style=&quot;margin: 0px ; margin-top: 4px ; text-align: center&quot;&gt;&amp;lt;&amp;lt;requirement&amp;gt;&amp;gt;&lt;br&gt;Confirmation&lt;/p&gt;" style="shape=rect;html=1;overflow=fill;whiteSpace=wrap;" vertex="1" parent="1">
          <mxGeometry x="755" y="760" width="130" height="40" as="geometry" />
        </mxCell>
      </root>
    </mxGraphModel>
  </diagram>
</mxfile>
